<?xml version="1.0" encoding="UTF-8"?>
<!DOCTYPE svg PUBLIC "-//W3C//DTD SVG 1.1//EN" "http://www.w3.org/Graphics/SVG/1.1/DTD/svg11.dtd">
<svg version="1.1" id="Layer_1" xmlns="http://www.w3.org/2000/svg" xmlns:xlink="http://www.w3.org/1999/xlink" x="0px" y="0px" width="16px" height="16px" viewBox="0 0 16 16" enable-background="new 0 0 16 16" xml:space="preserve">
  <g id="icon">
    <path d="M0.5,8.5V4.5h15v4H0.5zM14.5,8.5v7H1.5V8.5M9.581,15.351M9.581,4.421" fill="#FFFFFF" stroke="#383838" stroke-width="1" stroke-miterlimit="10"/>
    <rect x="6.5" y="4.5" width="3" height="11" fill="#F3B8B8" stroke="#E42D2C" stroke-width="1" stroke-linecap="round" stroke-miterlimit="10"/>
    <path d="M7.751,4.064c-0.058,-1.19,-1.089,-2.208,-1.481,-2.614c-0.707,-0.733,-1.572,-1,-2.128,-0.819s-0.778,1.127,-0.064,1.838C4.447,2.837,6.3,4,7.566,4.093M8.155,4.093C9.8,4,11.328,2.837,11.697,2.469c0.714,-0.712,0.492,-1.658,-0.064,-1.838s-1.421,0.086,-2.128,0.819c-0.392,0.406,-1.346,1.565,-1.481,2.643" fill="none" stroke="#E42D2C" stroke-width="1" stroke-linecap="round" stroke-miterlimit="10"/>
  </g>
</svg>
