<?xml version="1.0" encoding="UTF-8"?>
<!DOCTYPE svg PUBLIC "-//W3C//DTD SVG 1.1//EN" "http://www.w3.org/Graphics/SVG/1.1/DTD/svg11.dtd">
<svg version="1.1" id="Layer_1" xmlns="http://www.w3.org/2000/svg" xmlns:xlink="http://www.w3.org/1999/xlink" x="0px" y="0px" width="16px" height="16px" viewBox="0 0 16 16" enable-background="new 0 0 16 16" xml:space="preserve">
  <g id="main">
    <g id="icon">
      <path d="M9.855,2.548L10.04,3.172L10.16,3.825L10.2,4.5L10.17,5.082L10.08,5.647L9.943,6.193L9.751,6.717L9.511,7.215L9.225,7.685L8.897,8.124L8.529,8.529L8.124,8.897L7.685,9.225L7.215,9.511L6.717,9.751L6.193,9.943L5.647,10.08L5.082,10.17L4.5,10.2L3.825,10.16L3.172,10.04L2.548,9.855L1.956,9.599L1.5,9.337L1.5,14.5L15.5,14.5L15.5,2.5L9.835,2.5zz" fill="#FFFFFF"/>
      <path d="M9.855,2.548L9.992,3L15,3L15,14L2,14L2,9.618L1.956,9.599L1.401,9.28L1,8.986L1,14.5L1,15L1.5,15L15.5,15L16,15L16,14.5L16,2.5L16,2L15.5,2L9.618,2zz" fill="#383838"/>
      <path d="M7.685,9.225L7.215,9.511L6.717,9.751L6.193,9.943L5.647,10.08L5.082,10.17L4.522,10.2L4.437,10.29L4.044,10.91L3.749,11.59L3.564,12.29L3.5,13L10.06,13L9.992,12.29L9.807,11.59L9.512,10.91L9.119,10.29L8.637,9.762L8.079,9.346L7.727,9.194zz" fill="#FFFFFF"/>
      <path d="M9.225,7.685L8.897,8.124L8.529,8.529L8.124,8.897L7.685,9.225L7.215,9.511L7.157,9.539L7.319,9.562L7.828,9.782L8.3,10.13L8.72,10.6L9.069,11.15L9.333,11.75L9.498,12.38L9.509,12.5L4.047,12.5L4.058,12.38L4.223,11.75L4.487,11.15L4.836,10.6L5.246,10.15L5.082,10.17L4.5,10.2L3.925,10.17L3.622,10.64L3.601,10.68L3.586,10.71L3.291,11.39L3.275,11.42L3.265,11.46L3.08,12.17L3.07,12.21L3.066,12.25L3.002,12.95L2.953,13.5L3.5,13.5L10.06,13.5L10.6,13.5L10.55,12.95L10.49,12.25L10.49,12.21L10.48,12.17L10.29,11.46L10.28,11.42L10.27,11.39L9.971,10.71L9.955,10.68L9.934,10.64L9.54,10.02L9.518,9.988L9.489,9.957L9.008,9.426L8.975,9.389L8.936,9.36L8.398,8.96L8.69,8.721L8.727,8.69L8.757,8.653L9.033,8.321L9.064,8.284L9.087,8.241L9.295,7.86L9.318,7.816L9.333,7.769L9.464,7.348L9.479,7.299L9.484,7.26zz" fill="#228BCB"/>
      <path d="M11,6L14,6L14,5L11,5zM11,8L14,8L14,7L11,7zM11,10L14,10L14,9L11,9zz" fill="#787979"/>
    </g>
    <g id="overlay">
      <path d="M4.5,8.5c2.209,0,4,-1.791,4,-4C8.5,2.291,6.709,0.5,4.5,0.5S0.5,2.291,0.5,4.5C0.5,6.709,2.291,8.5,4.5,8.5zM4.5,1.824l2.564,2.533l-0.703,0.711L5,3.723v3.292H4V3.723L2.639,5.068l-0.703,-0.711L4.5,1.824z" fill="#C9ABD4"/>
      <path d="M4.5,8.5c2.209,0,4,-1.791,4,-4C8.5,2.291,6.709,0.5,4.5,0.5S0.5,2.291,0.5,4.5C0.5,6.709,2.291,8.5,4.5,8.5zM4.5,1.824l2.564,2.533l-0.703,0.711L5,3.723v3.292H4V3.723L2.639,5.068l-0.703,-0.711L4.5,1.824z" fill="#6A3E7A" opacity="0.2"/>
      <path d="M4.5,0c2.481,0,4.5,2.019,4.5,4.5S6.981,9,4.5,9S0,6.981,0,4.5S2.019,0,4.5,0zM4.5,8c1.93,0,3.5,-1.57,3.5,-3.5S6.43,1,4.5,1S1,2.57,1,4.5S2.57,8,4.5,8z" fill="#6A3E7A"/>
      <polygon points="4.5,1.824 7.064,4.356 6.361,5.068 5,3.723 5,7.016 4,7.016 4,3.723 2.639,5.068 1.936,4.356" fill="#FFFFFF" stroke-linejoin="miter"/>
    </g>
  </g>
</svg>
