<?xml version="1.0" encoding="UTF-8"?>
<!DOCTYPE svg PUBLIC "-//W3C//DTD SVG 1.1//EN" "http://www.w3.org/Graphics/SVG/1.1/DTD/svg11.dtd">
<svg version="1.1" id="Layer_1" xmlns="http://www.w3.org/2000/svg" xmlns:xlink="http://www.w3.org/1999/xlink" x="0px" y="0px" width="16px" height="16px" viewBox="0 0 16 16" enable-background="new 0 0 16 16" xml:space="preserve">
  <g id="icon">
    <path d="M14.5,0.5v15H9.5H6.5H2.5V0.5H14.5z" fill="#D9D9D9" stroke="#767676" stroke-width="1" stroke-miterlimit="10"/>
    <rect x="3" y="1" width="11" height="14" fill="#BDBDBD" opacity="0.4"/>
    <path d="M4,2.5h1M4,4.5h1M4,6.5h1M4,8.5h1M4,10.5h1M4,12.5h1M6,2.5h1M6,4.5h1M6,6.5h1M6,8.5h1M6,10.5h1M8,2.5h1M8,4.5h1M8,6.5h1M8,8.5h1M8,10.5h1M10,2.5h1M10,4.5h1M10,6.5h1M10,8.5h1M10,10.5h1M12,2.5h1M12,4.5h1M12,6.5h1M12,8.5h1M12,10.5h1M12,12.5h1" fill="none" stroke="#888888" stroke-width="1" stroke-miterlimit="10"/>
    <line x1="1" y1="15.5" x2="16" y2="15.5" fill="none" stroke="#767676" stroke-width="1" stroke-miterlimit="10"/>
    <rect x="6.5" y="12.5" width="4" height="3" fill="#D9D9D9" stroke="#767676" stroke-width="1" stroke-miterlimit="10"/>
  </g>
</svg>
