<?xml version="1.0" encoding="UTF-8"?>
<!DOCTYPE svg PUBLIC "-//W3C//DTD SVG 1.1//EN" "http://www.w3.org/Graphics/SVG/1.1/DTD/svg11.dtd">
<svg version="1.1" id="Layer_1" xmlns="http://www.w3.org/2000/svg" xmlns:xlink="http://www.w3.org/1999/xlink" x="0px" y="0px" width="16px" height="16px" viewBox="0 0 16 16" enable-background="new 0 0 16 16" xml:space="preserve">
  <g id="icon">
    <polygon points="0.5,4.5 0.5,8.5 1.5,8.5 1.5,15.5 14.5,15.5 14.5,8.5 15.5,8.5 15.5,4.5" fill="#FFFFFF" stroke-linejoin="miter" opacity="0.5"/>
    <path d="M15,16H1V9H0V4h16v5h-1V16zM2,15h12V9H2V15zM1,8h14V5H1V8z" fill="#6D6E71"/>
    <rect x="6.5" y="4.2" width="3" height="11.8" fill="#3E78B3"/>
    <path d="M7.0662,4.5935c-0.0383,0,-0.0772,-0.0044,-0.1162,-0.0137c-1.2613,-0.3,-2.7697,-1.3028,-3.2246,-1.7563c-0.4893,-0.4877,-0.6964,-1.1342,-0.5539,-1.7295c0.1094,-0.4573,0.4147,-0.8082,0.8166,-0.9386C4.7755,-0.1,5.8374,0.2806,6.6306,1.103l0.0479,0.0495c0.3029,0.3126,0.8786,0.9068,1.2439,1.6668c0.45,-0.8979,1.1192,-1.6092,1.2226,-1.7163c0.7932,-0.8224,1.8552,-1.2033,2.6425,-0.9476c0.4018,0.1304,0.7071,0.4813,0.8165,0.9386c0.1425,0.5953,-0.0646,1.2418,-0.5539,1.7295c-0.4219,0.4205,-1.8605,1.5574,-3.4297,1.7655c-0.1197,0.0161,-0.2358,-0.0122,-0.331,-0.0718c-0.0941,0.0589,-0.2081,0.0873,-0.3271,0.0723c-0.0442,-0.0055,-0.0864,-0.0166,-0.1258,-0.0326c-0.0199,0.0034,-0.0401,0.0057,-0.0607,0.0067c-0.1345,0.0068,-0.258,-0.0401,-0.3518,-0.1214C7.3313,4.5373,7.2026,4.5935,7.0662,4.5935zM4.5093,1.0765c-0.0795,0,-0.1511,0.0102,-0.2125,0.0301c-0.0659,0.0214,-0.1259,0.1078,-0.1528,0.2202c-0.0228,0.0951,-0.0693,0.4331,0.2873,0.7885c0.3183,0.3172,1.6633,1.2257,2.7296,1.4868c-0.2417,-0.7638,-0.8924,-1.4355,-1.2008,-1.7537l-0.0495,-0.0512C5.4329,1.3017,4.8835,1.0765,4.5093,1.0765zM11.2663,1.0765c-0.3742,0,-0.9236,0.2252,-1.4015,0.7207c-0.3263,0.3384,-0.8978,1.0542,-1.1835,1.7689c1.2404,-0.2422,2.4064,-1.1951,2.663,-1.4509c0.3566,-0.3554,0.3101,-0.6934,0.2873,-0.7885c-0.0269,-0.1124,-0.0869,-0.1988,-0.1527,-0.2202C11.4174,1.0867,11.3458,1.0765,11.2663,1.0765z" fill="#3E78B3"/>
  </g>
</svg>
