<?xml version="1.0" encoding="UTF-8"?>
<!DOCTYPE svg PUBLIC "-//W3C//DTD SVG 1.1//EN" "http://www.w3.org/Graphics/SVG/1.1/DTD/svg11.dtd">
<svg version="1.1" id="Layer_1" xmlns="http://www.w3.org/2000/svg" xmlns:xlink="http://www.w3.org/1999/xlink" x="0px" y="0px" width="16px" height="16px" viewBox="0 0 16 16" enable-background="new 0 0 16 16" xml:space="preserve">
  <g id="main">
    <g id="icon">
      <path d="M9.855,2.548L10.04,3.172L10.16,3.825L10.2,4.5L10.17,5.082L10.08,5.647L9.943,6.193L9.751,6.717L9.511,7.215L9.225,7.685L8.897,8.124L8.529,8.529L8.124,8.897L7.685,9.225L7.215,9.511L6.717,9.751L6.193,9.943L5.647,10.08L5.082,10.17L4.5,10.2L3.825,10.16L3.172,10.04L2.548,9.855L2.5,9.834L2.5,13.5L15.5,13.5L15.5,2.5L9.834,2.5zz" fill="#FFFFFF" opacity="0.5"/>
      <path d="M9.855,2.548L9.992,3L15,3L15,13L3,13L3,9.992L2.548,9.855L2,9.618L2,14L16,14L16,2L9.618,2zz" fill="#6D6E71"/>
      <path d="M11,6L14,6L14,5L11,5zM11,8L14,8L14,7L11,7zM12,10L14,10L14,9L12,9zz" fill="#6D6E71"/>
      <path d="M10.08,5.647L9.943,6.193L9.751,6.717L9.511,7.215L9.225,7.685L8.897,8.124L8.626,8.421L8.629,8.485L8.729,8.709L8.888,8.911L9.101,9.081L9.357,9.212L9.784,9.405L10.13,9.626L10.42,9.864L10.64,10.11L10.92,10.61L11.05,11.04L4.949,11.04L5.079,10.61L5.354,10.13L5.082,10.17L4.5,10.2L4.199,10.18L4.074,10.52L3.948,11.19L3.933,11.37L3.963,11.61L4.087,11.81L4.288,11.95L4.531,12L4.531,12L11.47,12L11.71,11.95L11.91,11.81L12.04,11.61L12.07,11.37L12.05,11.19L11.93,10.52L11.78,10.13L11.57,9.737L11.27,9.342L10.87,8.964L10.35,8.618L9.713,8.319L9.61,8.263L9.893,7.8L10.1,7.282L10.23,6.722L10.27,6.132L10.2,5.413L10.15,5.236zz" fill="#6485C3"/>
    </g>
    <g id="overlay">
      <path d="M4.5,0C2.0147,0,0,2.0147,0,4.5s2.0147,4.5,4.5,4.5c2.4853,0,4.5,-2.0147,4.5,-4.5S6.9853,0,4.5,0zM4.5,7.8772L1.2233,4.6611l0.9837,-0.9262L3.8,5.2886V1.4h1.4v3.8886l1.5931,-1.5538l0.9837,0.9262L4.5,7.8772z" fill="#52B250"/>
      <polygon points="7.7767,4.6611 6.7931,3.7348 5.2,5.2886 5.2,1.4 3.8,1.4 3.8,5.2886 2.2069,3.7348 1.2233,4.6611 4.5,7.8772" fill="#FFFFFF" stroke-linejoin="miter"/>
    </g>
  </g>
</svg>
