<?xml version="1.0" encoding="UTF-8"?>
<!DOCTYPE svg PUBLIC "-//W3C//DTD SVG 1.1//EN" "http://www.w3.org/Graphics/SVG/1.1/DTD/svg11.dtd">
<svg version="1.1" id="Layer_1" xmlns="http://www.w3.org/2000/svg" xmlns:xlink="http://www.w3.org/1999/xlink" x="0px" y="0px" width="16px" height="16px" viewBox="0 0 16 16" enable-background="new 0 0 16 16" xml:space="preserve">
  <g id="icon">
    <path d="M15,12h-1V9h1V12z" fill="#EEAC55"/>
    <path d="M15,8h-1V5h1V8z" fill="#CB525D"/>
    <path d="M15,4h-1V1h1V4z" fill="#52B250"/>
    <path d="M13,1v14H2V1H13z" fill="#FFFFFF" opacity="0.4"/>
    <path d="M14,16H1V0h13V16zM2,15h11V1H2V15z" fill="#6D6E71"/>
    <path d="M3.3362,12.9992c-0.1787,0,-0.3502,-0.0779,-0.4705,-0.2137c-0.1179,-0.1331,-0.1776,-0.3126,-0.1637,-0.4923l0.0182,-0.2352c0.0734,-0.9477,0.5278,-2.672,2.747,-3.5716c0.1095,-0.0461,0.1734,-0.1051,0.2023,-0.1429c-0.5276,-0.7218,-0.819,-1.6864,-0.819,-2.72C4.8504,4.4974,5.1224,3,7.4747,3h0.0338c2.3598,0,2.6327,1.4974,2.6327,2.6237c0,1.0316,-0.2913,1.9945,-0.8215,2.7196c0.0291,0.0372,0.0917,0.0963,0.2043,0.1435c2.226,0.8988,2.6821,2.6232,2.7557,3.5711l0.0183,0.2353c0.014,0.1796,-0.0457,0.3589,-0.1636,0.4921c-0.1204,0.1359,-0.2921,0.2139,-0.4711,0.2139H3.3362zM11.2603,11.9552c-0.0994,-0.7065,-0.5153,-1.8566,-2.1018,-2.4963c-0.4183,-0.1742,-0.7241,-0.497,-0.823,-0.8657c-0.0789,-0.2942,-0.0257,-0.59,0.1499,-0.833l0.0068,-0.0092c0.4172,-0.5484,0.6466,-1.3035,0.6466,-2.1273c0,-1.0924,-0.2354,-1.5797,-1.6304,-1.5797h-0.0338c-1.3879,0,-1.622,0.4873,-1.622,1.5797c0,0.8241,0.2286,1.5795,0.6436,2.1271l0.0067,0.009c0.1759,0.2442,0.2287,0.54,0.1498,0.8342c-0.0989,0.3681,-0.4036,0.6906,-0.815,0.8626l-0.0051,0.0021c-1.5799,0.6396,-1.9941,1.7899,-2.093,2.4966H11.2603z" fill="#6485C3"/>
  </g>
</svg>
