<?xml version="1.0" encoding="UTF-8"?>
<!DOCTYPE svg PUBLIC "-//W3C//DTD SVG 1.1//EN" "http://www.w3.org/Graphics/SVG/1.1/DTD/svg11.dtd">
<svg version="1.1" id="Layer_1" xmlns="http://www.w3.org/2000/svg" xmlns:xlink="http://www.w3.org/1999/xlink" x="0px" y="0px" width="16px" height="16px" viewBox="0 0 16 16" enable-background="new 0 0 16 16" xml:space="preserve">
  <g id="main">
    <clipPath id="clip_mask">
      <path d="M10.2965,15.1164l0.1191,-0.1164H8.2563C7.5636,15,7,14.4188,7,13.7261v-1.5012C7,11.538,7.5557,11,8.265,11h2.1508l-0.1003,-0.1049c-0.3107,-0.3201,-0.4014,-0.7909,-0.2306,-1.2041c0.1727,-0.4181,0.5767,-0.6891,1.0291,-0.6904L13.0519,9c0.323,0,0.6292,0.1217,0.8634,0.3427l0.0172,0.0162l0.0164,0.017c0.0151,0.0156,1.1799,1.2238,2.0512,2.1122V0H0v16h9.989C9.9551,15.6796,10.0633,15.358,10.2965,15.1164z" fill-rule="evenodd"/>
    </clipPath>
    <g id="icon" clip-path="url(#clip_mask)">
      <path d="M13.694,0.5H1.353C0.902,0.5,0.5,0.801,0.5,1.252v11.334c0,0.451,0.402,0.914,0.853,0.914H4.1v-0.462c0,-0.175,0.081,-0.238,-0.093,-0.238h-0.051c-0.175,0,-0.455,-0.219,-0.455,-0.394v-1.635c0,-0.175,0.281,-0.272,0.455,-0.272h2.263c0.175,0,0.282,0.097,0.282,0.272v1.635c0,0.175,-0.107,0.394,-0.282,0.394h-0.051c-0.175,0,-0.267,0.064,-0.267,0.238V13.5h3.1v-0.462c0,-0.175,0.054,-0.238,-0.12,-0.238h-0.051c-0.175,0,-0.328,-0.219,-0.328,-0.394v-1.635c0,-0.175,0.154,-0.272,0.328,-0.272h2.363c0.175,0,0.309,0.097,0.309,0.272v1.635c0,0.175,-0.135,0.394,-0.309,0.394h-0.051c-0.175,0,-0.24,0.064,-0.24,0.238V13.5h2.794c0.451,0,0.806,-0.463,0.806,-0.914V1.252C14.5,0.801,14.144,0.5,13.694,0.5z" fill="#FFFFFF" stroke="#797979" stroke-width="1" stroke-linecap="round" stroke-miterlimit="1" stroke-linejoin="round"/>
      <path d="M9.066,7.736c-0.176,-0.887,-0.49,-0.902,-2.206,-1.506c-0.251,-0.094,-0.321,-0.229,-0.303,-0.421c0.484,-0.577,0.776,-1.509,0.776,-2.162c0,-1.01,-0.346,-1.65,-1.762,-1.65c-0.006,0,0.002,0,0,0c-1.416,0,-1.734,0.64,-1.734,1.65c0,0.652,0.291,1.583,0.775,2.16c0.019,0.193,-0.053,0.328,-0.303,0.422c-1.716,0.604,-2.03,0.619,-2.207,1.507c-0.053,0.357,-0.062,0.506,0.079,0.901c0.159,0.445,2.406,0.387,3.39,0.387c0.004,0,-0.007,0,0,0c0.984,0,3.257,0.058,3.416,-0.386C9.128,8.242,9.119,8.093,9.066,7.736z" fill-rule="evenodd" fill="#3E79B4"/>
      <line x1="10.3" y1="3.5" x2="12.5" y2="3.5" fill="none" stroke="#B4B4B5" stroke-width="1" stroke-linecap="round" stroke-miterlimit="1"/>
      <line x1="10.3" y1="5.5" x2="12.5" y2="5.5" fill="none" stroke="#B4B4B5" stroke-width="1" stroke-linecap="round" stroke-miterlimit="1"/>
      <line x1="10.3" y1="7.5" x2="12.5" y2="7.5" fill="none" stroke="#B4B4B5" stroke-width="1" stroke-linecap="round" stroke-miterlimit="1"/>
    </g>
    <g id="overlay">
      <path d="M13.2288,10.0699c-0.0478,-0.0451,-0.111,-0.0701,-0.1767,-0.0699l-1.9354,0.0006c-0.1039,0.0003,-0.1557,0.1259,-0.0823,0.1994l1.7219,1.8H8.265c-0.1416,0,-0.265,0.0833,-0.265,0.2249v0.5601v0.502v0.4391c0,0.1416,0.1148,0.2563,0.2563,0.2563h4.4912l-1.7304,1.8185c-0.0732,0.0737,-0.0209,0.1991,0.0829,0.1991h1.9222c0.0662,0,0.1299,-0.0256,0.1776,-0.0715c0,0,1.9735,-2.0193,2.7414,-2.7965c0.0786,-0.0795,0.078,-0.204,-0.0013,-0.2828C15.1735,12.0873,13.2288,10.0699,13.2288,10.0699z" fill-rule="evenodd" fill="#4DA07D"/>
    </g>
  </g>
</svg>
