<?xml version="1.0" encoding="UTF-8"?>
<!DOCTYPE svg PUBLIC "-//W3C//DTD SVG 1.1//EN" "http://www.w3.org/Graphics/SVG/1.1/DTD/svg11.dtd">
<svg version="1.1" id="Layer_1" xmlns="http://www.w3.org/2000/svg" xmlns:xlink="http://www.w3.org/1999/xlink" x="0px" y="0px" width="16px" height="16px" viewBox="0 0 16 16" enable-background="new 0 0 16 16" xml:space="preserve">
  <g id="main">
    <g id="icon">
      <path d="M1.753,0.5346L1.621,0.6289L1.532,0.7688L1.5,0.94L1.5,9.865L2.207,9.618L1.968,9.023L1.789,8.41L1.678,7.802L1.639,7.224L1.661,6.692L1.758,6.098L1.977,5.493L2.147,5.201L2.365,4.925L2.849,4.518L3.451,4.229L4.174,4.057L5.023,4L5.81,4.05L6.49,4.199L7.063,4.448L7.531,4.798L7.893,5.25L8.151,5.805L8.305,6.463L8.356,7.224L8.321,7.767L8.217,8.364L8.044,8.988L8.039,9L9,9L9,7.3L9.026,7.038L9.102,6.794L9.381,6.381L9.794,6.102L10.04,6.026L10.3,6L12.7,6L12.96,6.026L13.21,6.102L13.62,6.381L13.9,6.794L13.97,7.038L14,7.3L14,9L14.5,9L14.5,0.94L14.47,0.7688L14.38,0.6289L14.25,0.5346L14.09,0.5L1.914,0.5zz" fill-rule="evenodd" fill="#FFFFFF"/>
      <path d="M1.559,0.07402L1.268,0.2758L1.072,0.5746L1,0.94L1,10.06L2,9.689L2,9.108L1.734,8.146L1.639,7.224L1.701,6.378L1.81,5.913L2,5.45L2,1L14,1L14,7.3L14,9L15,9L15,0.94L14.93,0.5746L14.73,0.2758L14.44,0.07402L14.09,0L1.914,0zz" fill="#6D6E71"/>
      <path d="M11,5L13,5L13,2L11,2zz" fill-rule="evenodd" fill="#3E79B4"/>
      <path d="M8.306,6.474L8.352,7L9.038,7L9.102,6.794L9.381,6.381L9.794,6.102L9.82,6.094L9.738,6.039L9.544,6L8.209,6zM8.04,9L9,9L9,8L8.287,8zz" fill="#797979"/>
      <path d="M4.363,5.04L3.831,5.155L3.415,5.344L3.102,5.6L2.881,5.921L2.738,6.301L2.662,6.737L2.639,7.224L2.683,7.771L2.811,8.366L3.016,8.971L3.294,9.549L3.638,10.06L4.043,10.48L4.503,10.75L4.752,10.83L5.012,10.85L5.272,10.83L5.52,10.75L5.976,10.48L6,10.45L6,10.3L6.026,10.04L6.102,9.794L6.381,9.381L6.794,9.102L6.949,9.054L6.988,8.971L7.189,8.366L7.313,7.771L7.356,7.224L7.335,6.737L7.262,6.301L7.124,5.921L6.91,5.6L6.605,5.344L6.198,5.155L5.675,5.04L5.023,5zM2.861,10.45L1.283,11.03L0.8164,11.27L0.5084,11.55L0.316,11.89L0.1965,12.34L0.006055,13.71L0.02871,13.93L0.1619,14.13L0.3898,14.3L0.6973,14.45L1.489,14.68L2.413,14.83L4.166,14.98L4.97,15L5.783,14.98L7.557,14.83L8.492,14.68L9,14.53L9,14L7.3,14L7.038,13.97L6.794,13.9L6.381,13.62L6.102,13.21L6.026,12.96L6,12.7L6,11.9L5.891,12.06L5.377,12.58L5.162,12.72L4.991,12.77L4.82,12.72L4.606,12.58L4.1,12.05L3.575,11.28L3.137,10.33zz" fill-rule="evenodd" fill="#3E79B4"/>
    </g>
    <g id="overlay">
      <path d="M15.7,10h-2.7V7.3c0,-0.166,-0.134,-0.3,-0.3,-0.3h-2.4c-0.166,0,-0.3,0.134,-0.3,0.3v2.7H7.3c-0.166,0,-0.3,0.134,-0.3,0.3v2.4c0,0.166,0.134,0.3,0.3,0.3h2.7v2.7c0,0.166,0.134,0.3,0.3,0.3h2.4c0.166,0,0.3,-0.134,0.3,-0.3v-2.7h2.7c0.166,0,0.3,-0.134,0.3,-0.3v-2.4C16,10.134,15.866,10,15.7,10z" fill="#4EA17E"/>
    </g>
  </g>
</svg>
