<?xml version="1.0" encoding="UTF-8"?>
<!DOCTYPE svg PUBLIC "-//W3C//DTD SVG 1.1//EN" "http://www.w3.org/Graphics/SVG/1.1/DTD/svg11.dtd">
<svg version="1.1" id="Layer_1" xmlns="http://www.w3.org/2000/svg" xmlns:xlink="http://www.w3.org/1999/xlink" x="0px" y="0px" width="24px" height="24px" viewBox="0 0 24 24" enable-background="new 0 0 24 24" xml:space="preserve">
  <g id="icon">
    <path d="M23,19h-2v-5h2V19z" fill="#EEAC55"/>
    <path d="M23,13h-2V8h2V13z" fill="#CB525D"/>
    <path d="M23,7h-2V2h2V7z" fill="#52B250"/>
    <path d="M19,2v20H3V2H19z" fill="#FFFFFF" opacity="0.4"/>
    <path d="M21,24H1V0h20V24zM3,22h16V2H3V22z" fill="#7B7B7B"/>
    <path d="M4.9278,19c-0.2606,0,-0.5107,-0.109,-0.6861,-0.2992c-0.172,-0.1864,-0.259,-0.4376,-0.2388,-0.6892l0.0265,-0.3293c0.107,-1.327,0.7696,-3.7411,4.006,-5.0006c0.1596,-0.0645,0.2529,-0.1471,0.295,-0.2c-0.7695,-1.0106,-1.1944,-2.3612,-1.1944,-3.8083C7.136,7.0965,7.5327,5,10.9631,5h0.0493c3.4414,0,3.8393,2.0965,3.8393,3.6735c0,1.4443,-0.4249,2.7925,-1.1981,3.8077c0.0425,0.0521,0.1338,0.1349,0.2979,0.201c3.2463,1.2584,3.9114,3.6728,4.0188,4.9999l0.0266,0.3294c0.0204,0.2514,-0.0666,0.5026,-0.2386,0.689c-0.1755,0.1903,-0.426,0.2995,-0.687,0.2995H4.9278zM16.4838,17.5383c-0.145,-0.9892,-0.7515,-2.5994,-3.0651,-3.4951c-0.6101,-0.2439,-1.056,-0.6959,-1.2002,-1.2121c-0.1151,-0.4119,-0.0375,-0.8261,0.2186,-1.1663l0.01,-0.0129c0.6085,-0.7678,0.943,-1.8251,0.943,-2.9785c0,-1.5294,-0.3433,-2.2118,-2.3776,-2.2118h-0.0493c-2.024,0,-2.3655,0.6823,-2.3655,2.2118c0,1.1539,0.3333,2.2115,0.9385,2.9782l0.0097,0.0126c0.2565,0.342,0.3336,0.7561,0.2184,1.1679c-0.1443,0.5154,-0.5886,0.9669,-1.1886,1.2077l-0.0075,0.003c-2.304,0.8955,-2.908,2.5061,-3.0523,3.4955H16.4838z" fill="#6485C3"/>
  </g>
</svg>
