<?xml version="1.0" encoding="UTF-8"?>
<!DOCTYPE svg PUBLIC "-//W3C//DTD SVG 1.1//EN" "http://www.w3.org/Graphics/SVG/1.1/DTD/svg11.dtd">
<svg version="1.1" id="Layer_1" xmlns="http://www.w3.org/2000/svg" xmlns:xlink="http://www.w3.org/1999/xlink" x="0px" y="0px" width="16px" height="16px" viewBox="0 0 16 16" enable-background="new 0 0 16 16" xml:space="preserve">
  <g id="main">
    <g id="icon">
      <path d="M7.469,1.635L7.02,1.775L6.614,1.997L6.26,2.291L5.968,2.647L5.748,3.056L5.608,3.507L5.56,3.991L5.608,4.475L5.748,4.926L5.968,5.334L6.26,5.69L6.614,5.984L7.02,6.206L7.469,6.346L7.95,6.395L8.431,6.346L8.88,6.206L9.286,5.984L9.64,5.69L9.932,5.334L10.15,4.926L10.29,4.475L10.34,3.991L10.29,3.507L10.15,3.056L9.932,2.647L9.64,2.291L9.286,1.997L8.88,1.775L8.431,1.635L7.95,1.586zM3.711,8.682L3.387,8.9L3.168,9.223L3.088,9.619L3.088,10.17L3.173,10.87L3.423,11.55L3.832,12.19L4.391,12.77L5.095,13.26L5.936,13.64L6.495,13.78L6.416,13.61L6.236,13.1L6.105,12.58L6.027,12.05L6,11.5L6.027,10.95L6.105,10.42L6.236,9.896L6.416,9.392L6.644,8.909L6.828,8.602L4.106,8.602zz" fill="#F5F5F5"/>
      <path d="M7.352,1.061L6.795,1.235L6.291,1.512L5.851,1.877L5.488,2.32L5.214,2.828L5.041,3.389L4.98,3.991L5.041,4.593L5.214,5.154L5.488,5.662L5.851,6.105L6.291,6.47L6.795,6.746L7.352,6.921L7.95,6.982L8.431,6.933L8.448,6.92L8.909,6.644L9.392,6.416L9.888,6.238L10.05,6.105L10.41,5.662L10.69,5.154L10.86,4.593L10.92,3.991L10.86,3.389L10.69,2.828L10.41,2.32L10.05,1.877L9.609,1.512L9.105,1.235L8.548,1.061L7.95,1zM8.351,2.027L8.724,2.144L9.062,2.329L9.357,2.574L9.6,2.871L9.784,3.211L9.9,3.587L9.94,3.991L9.9,4.394L9.784,4.77L9.6,5.111L9.357,5.408L9.062,5.653L8.724,5.838L8.351,5.955L7.95,5.995L7.549,5.955L7.176,5.838L6.838,5.653L6.543,5.408L6.3,5.111L6.116,4.77L6,4.394L5.96,3.991L6,3.587L6.116,3.211L6.3,2.871L6.543,2.574L6.838,2.329L7.176,2.144L7.549,2.027L7.95,1.986zM3.783,8.048L3.482,8.142L3.209,8.29L2.971,8.486L2.775,8.723L2.626,8.995L2.533,9.296L2.5,9.619L2.5,10.17L2.595,10.98L2.875,11.77L3.332,12.51L3.959,13.17L4.747,13.73L5.688,14.17L6.214,14.33L6.775,14.45L6.868,14.46L6.644,14.09L6.416,13.61L6.313,13.32L6.104,13.27L5.331,12.93L4.685,12.5L4.171,11.98L3.796,11.41L3.566,10.8L3.488,10.17L3.488,9.619L3.537,9.379L3.67,9.183L3.866,9.05L4.106,9.002L6.6,9.002L6.644,8.909L6.92,8.448L7.241,8.016L4.106,8.016zz" fill="#404040"/>
    </g>
    <g id="overlay">
      <path d="M8.6447,8.6447c1.5769,-1.5769,4.1337,-1.5769,5.7106,0s1.5769,4.1337,0,5.7106s-4.1337,1.5769,-5.7106,0S7.0678,10.2216,8.6447,8.6447z" id="b" fill="#FFFFFF"/>
      <path d="M7,11.5c0,-1.2039,0.4676,-2.3344,1.3166,-3.1834C9.1656,7.4676,10.2961,7,11.5,7s2.3344,0.4676,3.1834,1.3166C15.5324,9.1656,16,10.2961,16,11.5s-0.4676,2.3344,-1.3166,3.1834C13.8344,15.5324,12.7039,16,11.5,16s-2.3344,-0.4676,-3.1834,-1.3166C7.4676,13.8344,7,12.7039,7,11.5zM15.0352,11.5c0,-0.9459,-0.3673,-1.8341,-1.0342,-2.501c-1.379,-1.379,-3.6229,-1.379,-5.002,0c-0.6669,0.6669,-1.0342,1.5551,-1.0342,2.501s0.3673,1.8341,1.0342,2.501c1.379,1.379,3.6229,1.379,5.002,0C14.6679,13.3341,15.0352,12.4459,15.0352,11.5z" id="c3" fill="#0891b2"/>
      <path d="M9.5483,10.042c0,-0.0768,0.0186,-0.1528,0.0538,-0.2198c0.0763,-0.1455,0.2108,-0.2428,0.3691,-0.2669c0.1556,-0.0237,0.3149,0.0285,0.4261,0.1397l2.1391,2.1392v-1.3689c0,-0.2144,0.1378,-0.4071,0.335,-0.4686c0.1542,-0.048,0.3152,-0.0221,0.4419,0.0712c0.1245,0.0916,0.1989,0.2387,0.1989,0.3932v2.5717c0,0.2644,-0.2151,0.4796,-0.4796,0.4796h-2.5716c-0.269,0,-0.4879,-0.2189,-0.4879,-0.488c0,-0.0511,0.0079,-0.1025,0.0236,-0.1528c0.0614,-0.1973,0.2541,-0.3351,0.4686,-0.3351l1.3689,0l-2.136,-2.1361C9.603,10.305,9.5483,10.1744,9.5483,10.042z" id="c3" fill="#0891b2"/>
    </g>
  </g>
</svg>
